<svg xmlns="http://www.w3.org/2000/svg" viewBox="0 0 64 64">
  <defs>
    <linearGradient id="g" x1="0" y1="0" x2="1" y2="1">
      <stop offset="0" stop-color="#6366f1"/>
      <stop offset="1" stop-color="#22d3ee"/>
    </linearGradient>
    <linearGradient id="s" x1="0" y1="0" x2="0" y2="1">
      <stop offset="0" stop-color="#fff" stop-opacity="0.22"/>
      <stop offset="1" stop-color="#fff" stop-opacity="0"/>
    </linearGradient>
  </defs>
  <rect width="64" height="64" rx="16" fill="url(#g)"/>
  <rect width="64" height="64" rx="16" fill="url(#s)"/>
  <path d="M14 45V19h6.6l7.4 14.2L35.4 19H42v26h-5.8V29.6L29.6 42h-3.2l-6.6-12.4V45z" fill="#fff"/>
  <path d="M45 45V33h4.6c3.4 0 5.4 1.9 5.4 4.7 0 2-1.1 3.4-2.9 4L56 45h-3.6l-3.3-3h-1v3zm3.1-5.4h1.4c1.3 0 2-.6 2-1.6s-.7-1.6-2-1.6h-1.4z" fill="#fff" opacity="0.92"/>
</svg>
